<svg xmlns="http://www.w3.org/2000/svg" viewBox="0 0 32 32" fill="none">
  <rect width="32" height="32" rx="8" fill="#009493"/>
  <circle cx="9.5" cy="9" r="3.2" fill="#FFFFFF"/>
  <path d="M6.6 14.2c0-.9.7-1.7 1.6-1.8.9-.15 4.7-.15 5.6 0 .9.1 1.6.9 1.6 1.8v8.2c0 1-.8 1.8-1.8 1.8H8.4c-1 0-1.8-.8-1.8-1.8v-8.2Z" fill="#FFFFFF"/>
  <circle cx="22.5" cy="9" r="3.2" fill="#FFB6A6"/>
  <path d="M16.6 14.2c0-.9.7-1.7 1.6-1.8.9-.15 4.7-.15 5.6 0 .9.1 1.6.9 1.6 1.8v8.2c0 1-.8 1.8-1.8 1.8h-5.2c-1 0-1.8-.8-1.8-1.8v-8.2Z" fill="#FFFFFF"/>
  <path d="M13.2 15.8c2.4 2.1 5.1 4.2 7.7 6.2" stroke="#FFB6A6" stroke-width="1.8" stroke-linecap="round"/>
</svg>
